<mxfile host="app.diagrams.net" modified="2022-03-12T22:09:28.481Z" agent="5.0 (X11; Linux x86_64) AppleWebKit/537.36 (KHTML, like Gecko) Chrome/99.0.4844.51 Safari/537.36" etag="43V2IUBMTOFsuMIfsuNa" version="16.6.4" type="github">
  <diagram id="zb8YAg4uh7q8EnR9igVz" name="Page-1">
    <mxGraphModel dx="331" dy="163" grid="0" gridSize="10" guides="1" tooltips="1" connect="1" arrows="1" fold="1" page="1" pageScale="1" pageWidth="850" pageHeight="1100" math="0" shadow="0">
      <root>
        <mxCell id="0" />
        <mxCell id="1" parent="0" />
      </root>
    </mxGraphModel>
  </diagram>
</mxfile>
